<svg height="512" width="512" xmlns="http://www.w3.org/2000/svg"><path d="M179.734 488.076c9.932 0 17.998-8.832 18.364-20.107 1.309-40.357 8.228-78.93 21.152-117.925 11.666-35.199 32.434-66.451 33.188-67.579l1.054-1.505V253.5h-6.881v-3.709a42.166 42.166 0 009.333 1.053c3.164 0 6.244-.361 9.211-1.024v3.681h-6.649v25.568l-.051 1.817 1.085 1.55c.212.315 21.385 31.935 33.208 67.608 12.925 39 19.844 77.573 21.152 117.925.365 11.274 8.432 20.107 18.364 20.107 4.582 0 8.965-1.917 12.341-5.396 4.019-4.142 6.216-10.071 6.028-16.268-.959-31.728-4.878-62.359-11.646-91.043l-11.68 2.756c6.584 27.9 10.396 57.727 11.332 88.649.089 2.928-.901 5.75-2.647 7.55-.775.799-2.051 1.752-3.728 1.752-3.361 0-6.219-3.812-6.37-8.496-1.347-41.521-8.463-81.201-21.756-121.312-8.35-25.194-21.317-48.675-28.815-61.2h33.168c-2.273 15.287-.693 32.936 4.376 46.041 3.965 10.254 7.549 21.108 10.652 32.264l11.561-3.215c-3.207-11.531-6.915-22.761-11.021-33.378-5.017-12.972-6.029-31.993-2.462-46.256l.18-.717V253.5H310.45v-14.101l-15.489-14.671a41.977 41.977 0 003.196-16.096c0-1.9-.139-3.767-.383-5.602l.373.059 4.068-26.116-22.661-153.049h-20.373V113l5.4 6.53-7.275 8.322 7.379 8.922-5.504 6.715v23.067a42.235 42.235 0 00-3.235-.137c-1.089 0-2.166.055-3.234.137v-23.73l-5.406-6.478 7.527-8.052-7.594-8.529 5.473-6.498V23.924h-20.374L209.809 176.07l-.133.902 4.129 26.509.26-.04a42.336 42.336 0 00-.331 5.19 41.967 41.967 0 003.162 16.009l-15.578 14.759V253.5h-11.095v26.307l.18.717c3.566 14.266 2.555 33.287-2.462 46.257-11.063 28.599-24.652 76.037-26.575 139.632-.188 6.196 2.01 12.126 6.028 16.268 3.376 3.478 7.758 5.395 12.34 5.395zm61.759-222.572v7.564h-39.271v-7.564h39.271zm68.284 0v7.564h-39.271v-7.564h39.271zm-11.327-20.943v8.939h-21.294v-8.396a42.525 42.525 0 0011.496-9.823l9.798 9.28zm-27.269-96.783l9.047-11.038-7.172-8.672 7.275-8.321-9.15-11.066v-59.38l18.898 127.625-.894 5.735a42.408 42.408 0 00-18.005-13.385v-21.498zm14.976 60.854c0 16.659-13.553 30.212-30.212 30.212s-30.212-13.553-30.212-30.212c0-16.658 13.553-30.212 30.212-30.212s30.212 13.554 30.212 30.212zm-64.344-31.706l18.898-127.631v59.594l-9.346 11.096 7.225 8.114-7.291 7.799 9.412 11.278v22.101a42.396 42.396 0 00-18.005 13.384l-.893-5.735zm-8.496 67.635l9.867-9.348a42.534 42.534 0 0011.428 9.822v8.466h-21.295v-8.94zm-14.185 86.548c5.068-13.104 6.649-30.752 4.376-46.041h33.168c-7.498 12.525-20.466 36.006-28.815 61.2-13.293 40.104-20.409 79.786-21.756 121.311-.152 4.686-3.01 8.497-6.37 8.497-1.677 0-2.952-.953-3.728-1.752-1.746-1.8-2.736-4.622-2.647-7.55 1.871-61.898 15.048-107.94 25.772-135.665z"/><path d="M255.945 230.841c12.247 0 22.21-9.962 22.21-22.209 0-2.638-.46-5.223-1.368-7.684l-11.258 4.153c.415 1.127.626 2.315.626 3.531 0 5.63-4.58 10.209-10.21 10.209-5.629 0-10.209-4.579-10.209-10.209 0-5.629 4.58-10.209 10.209-10.209 2.047 0 4.019.602 5.704 1.74l6.717-9.944a22.11 22.11 0 00-12.421-3.796c-12.246 0-22.209 9.963-22.209 22.209s9.963 22.209 22.209 22.209z"/></svg>