<svg xmlns="http://www.w3.org/2000/svg" width="64" height="64"><path d="M59 57.068A6.933 6.933 0 0152.068 64H11.932A6.933 6.933 0 015 57.068V6.932A6.933 6.933 0 0111.932 0h40.136A6.933 6.933 0 0159 6.932v50.136zM55 6.932A2.932 2.932 0 0052.068 4H11.932A2.932 2.932 0 009 6.932v50.136A2.932 2.932 0 0011.932 60h40.136A2.931 2.931 0 0055 57.068V6.932z"/><path d="M31.63 54.795c-9.029 0-16.375-7.346-16.375-16.375s7.346-16.375 16.375-16.375 16.375 7.346 16.375 16.375-7.346 16.375-16.375 16.375zm0-30.75c-7.927 0-14.375 6.448-14.375 14.375 0 7.928 6.448 14.375 14.375 14.375s14.375-6.447 14.375-14.375c0-7.927-6.448-14.375-14.375-14.375z"/><path d="M27.113 48.205a.987.987 0 01-.457-.111 10.839 10.839 0 01-5.901-9.674 1 1 0 112 0 8.85 8.85 0 004.817 7.896 1 1 0 01-.459 1.889zm4.517 1.09a1 1 0 110-2 8.95 8.95 0 001.789-.18 1 1 0 01.404 1.959 10.92 10.92 0 01-2.193.221zM56.63 17h-50a1 1 0 110-2h50c.554 0 1 .447 1 1s-.446 1-1 1zm-36-6h-2a1 1 0 110-2h2a1 1 0 110 2zm-6 0h-2a1 1 0 110-2h2a1 1 0 110 2z"/></svg>