<svg xmlns="http://www.w3.org/2000/svg" viewBox="0 0 63 63"><path d="M57.5 57.5A5.5 5.5 0 0152 63H11a5.5 5.5 0 01-5.5-5.5v-52A5.5 5.5 0 0111 0h41a5.5 5.5 0 015.5 5.5v52zm-3-52A2.5 2.5 0 0052 3H11a2.5 2.5 0 00-2.5 2.5v52A2.5 2.5 0 0011 60h41a2.5 2.5 0 002.5-2.5v-52z"/><path d="M55.573 19h-49c-.828 0-1.073-.671-1.073-1.5V5.981C5.5 2.907 7.953 0 10.999 0h40.62C54.833 0 57.5 3.152 57.5 5.981V17.5c0 .829-1.099 1.5-1.927 1.5zM8.5 16h46V5.981C54.5 4.631 52.978 3 51.619 3h-40.62C9.632 3 8.5 4.588 8.5 5.981V16z"/><path d="M23 18.5a1.5 1.5 0 01-1.5-1.5V2a1.5 1.5 0 113 0v15a1.5 1.5 0 01-1.5 1.5zm27.705-8.761a2.586 2.586 0 11-5.172.002 2.586 2.586 0 015.172-.002zm-7.241 0a2.586 2.586 0 11-5.172.002 2.586 2.586 0 015.172-.002zm-7.241 0a2.587 2.587 0 11-5.174 0 2.587 2.587 0 015.174 0zm-5.496 45.595c-7.922 0-14.367-6.444-14.367-14.366s6.445-14.366 14.367-14.366c7.921 0 14.367 6.444 14.367 14.366s-6.446 14.366-14.367 14.366zm0-25.732c-6.268 0-11.367 5.098-11.367 11.366 0 6.267 5.099 11.366 11.367 11.366 6.267 0 11.367-5.099 11.367-11.366 0-6.268-5.1-11.366-11.367-11.366z"/><path d="M25.252 45.712c-3.508 0-6.553-2.046-8.095-3.684a1.499 1.499 0 01.064-2.12 1.498 1.498 0 012.117.06c.208.217 5.14 5.272 10.189 1.041 5.714-4.781 11.719-2.073 14.094.027a1.499 1.499 0 11-1.986 2.248c-.198-.173-5.042-4.277-10.182.026-2.09 1.749-4.219 2.402-6.201 2.402z"/><path d="M38.809 43.877a1.035 1.035 0 11-2.069.001 1.035 1.035 0 012.069-.001zm-1.035 4.138a1.035 1.035 0 11-2.07 0 1.035 1.035 0 012.07 0zm-4.137-3.103a1.034 1.034 0 11-2.069 0 1.034 1.034 0 012.069 0zm-2.07 4.138a1.034 1.034 0 11-2.068 0 1.034 1.034 0 012.068 0zm-6.207-2.069a1.034 1.034 0 11-2.068 0 1.034 1.034 0 012.068 0z"/></svg>